<svg width="16" height="16" viewBox="0 0 16 16" fill="none" xmlns="http://www.w3.org/2000/svg">
<g opacity="0.6">
<path fill-rule="evenodd" clip-rule="evenodd" d="M13.3333 2.6665H2.66665C2.19781 2.6665 1.78346 2.91175 1.54557 3.28029C1.62144 3.30268 1.69503 3.33755 1.76341 3.38541L7.99998 7.75101L14.2366 3.38541C14.3049 3.33755 14.3785 3.30268 14.4544 3.28029C14.2165 2.91175 13.8022 2.6665 13.3333 2.6665ZM14.6666 4.91533L8.71681 9.08022C8.28641 9.3815 7.71355 9.3815 7.28315 9.08022L1.33331 4.91533V11.9998C1.33331 12.7332 1.93331 13.3332 2.66665 13.3332H13.3333C14.0666 13.3332 14.6666 12.7332 14.6666 11.9998V4.91533Z" fill="white"/>
</g>
</svg>
