<svg width="55" height="55" viewBox="0 0 55 55" fill="none" xmlns="http://www.w3.org/2000/svg">
<circle cx="27.5" cy="27.5" r="27.5" fill="#E94200"/>
<path fill-rule="evenodd" clip-rule="evenodd" d="M39.089 20.5624C39.4746 20.9599 39.7485 21.4521 39.8829 21.9893C40.242 23.9801 40.4163 25.9998 40.4036 28.0226C40.4108 30.0153 40.2365 32.0044 39.8829 33.9654C39.7485 34.5026 39.4746 34.9948 39.089 35.3923C38.7035 35.7898 38.2198 36.0785 37.6869 36.2293C35.74 36.75 27.9521 36.75 27.9521 36.75C27.9521 36.75 20.1643 36.75 18.2173 36.2293C17.6953 36.0865 17.2189 35.8114 16.8343 35.4307C16.4496 35.05 16.1696 34.5765 16.0213 34.056C15.6623 32.0652 15.4879 30.0455 15.5006 28.0226C15.4907 26.0149 15.665 24.0105 16.0213 22.0346C16.1558 21.4974 16.4297 21.0052 16.8152 20.6077C17.2008 20.2102 17.6845 19.9215 18.2173 19.7707C20.1643 19.25 27.9521 19.25 27.9521 19.25C27.9521 19.25 35.74 19.25 37.6869 19.7254C38.2198 19.8762 38.7035 20.1649 39.089 20.5624ZM26.1524 31.2992C25.8191 31.4888 25.4052 31.2481 25.4052 30.8646V25.1807C25.4052 24.7973 25.8191 24.5565 26.1524 24.7461L31.1497 27.588C31.4868 27.7797 31.4868 28.2656 31.1497 28.4573L26.1524 31.2992Z" fill="white"/>
</svg>
